<svg width="32" height="32" viewBox="0 0 32 32" fill="none" xmlns="http://www.w3.org/2000/svg">
<path d="M19.626 11.72L13.906 17.4533L11.706 15.2533C11.5865 15.1137 11.4394 15.0004 11.274 14.9203C11.1086 14.8403 10.9284 14.7953 10.7448 14.7882C10.5611 14.7811 10.378 14.8121 10.2069 14.8791C10.0358 14.9461 9.88043 15.0478 9.75049 15.1778C9.62055 15.3077 9.51887 15.4631 9.45184 15.6342C9.38481 15.8053 9.35386 15.9884 9.36096 16.172C9.36805 16.3557 9.41302 16.5358 9.49305 16.7013C9.57309 16.8667 9.68645 17.0138 9.82602 17.1333L12.9594 20.28C13.0839 20.4035 13.2317 20.5013 13.3941 20.5677C13.5566 20.634 13.7305 20.6676 13.906 20.6666C14.2558 20.6652 14.591 20.5263 14.8394 20.28L21.506 13.6133C21.631 13.4893 21.7302 13.3419 21.7979 13.1794C21.8656 13.0169 21.9004 12.8426 21.9004 12.6666C21.9004 12.4906 21.8656 12.3163 21.7979 12.1539C21.7302 11.9914 21.631 11.8439 21.506 11.72C21.2562 11.4716 20.9183 11.3322 20.566 11.3322C20.2138 11.3322 19.8758 11.4716 19.626 11.72ZM15.9994 2.66663C13.3623 2.66663 10.7844 3.44861 8.59175 4.9137C6.3991 6.37878 4.69013 8.46116 3.68096 10.8975C2.67179 13.3339 2.40775 16.0147 2.92222 18.6012C3.43669 21.1876 4.70656 23.5633 6.57126 25.428C8.43597 27.2927 10.8117 28.5626 13.3982 29.0771C15.9846 29.5916 18.6655 29.3275 21.1018 28.3184C23.5382 27.3092 25.6205 25.6002 27.0856 23.4076C28.5507 21.2149 29.3327 18.637 29.3327 16C29.3327 14.249 28.9878 12.5152 28.3177 10.8975C27.6477 9.27984 26.6656 7.80998 25.4274 6.57187C24.1893 5.33375 22.7195 4.35163 21.1018 3.68157C19.4841 3.0115 17.7503 2.66663 15.9994 2.66663ZM15.9994 26.6666C13.8897 26.6666 11.8274 26.041 10.0733 24.869C8.31915 23.6969 6.95198 22.031 6.14464 20.0819C5.33731 18.1328 5.12607 15.9881 5.53765 13.919C5.94922 11.8499 6.96512 9.94925 8.45688 8.45749C9.94864 6.96573 11.8493 5.94983 13.9184 5.53825C15.9875 5.12667 18.1322 5.33791 20.0813 6.14524C22.0304 6.95258 23.6963 8.31975 24.8684 10.0739C26.0404 11.828 26.666 13.8903 26.666 16C26.666 18.8289 25.5422 21.542 23.5418 23.5424C21.5414 25.5428 18.8283 26.6666 15.9994 26.6666Z" fill="#FFBC57"/>
</svg>
