<svg width="24" height="24" viewBox="0 0 24 24" fill="none" xmlns="http://www.w3.org/2000/svg">
<g clip-path="url(#clip0_204_44)">
<rect width="24" height="24" rx="12" fill="black"/>
<path d="M16.3031 10.1361C15.2426 10.7366 13.8516 11.3926 12.2031 11.8796C11.8621 11.9661 11.6271 11.9211 11.5146 11.8836C9.85415 11.1896 8.69715 10.6351 7.67315 10.0501C7.66615 10.0466 7.66215 10.0451 7.65465 10.0411C7.02115 9.69158 7.01465 10.0411 7.01465 10.0411V14.0901C7.01465 14.6426 7.46265 15.0901 8.01465 15.0901H15.6851C16.2371 15.0901 16.6851 14.6426 16.6851 14.0901V10.1361C16.6851 9.90507 16.3031 10.1361 16.3031 10.1361Z" fill="#FFB400"/>
<path d="M12 0C5.3725 0 0 5.3725 0 12C0 18.627 5.3725 24 12 24C18.6275 24 24 18.627 24 12C24 5.3725 18.6275 0 12 0ZM18.605 15.712C18.605 16.264 18.157 16.712 17.605 16.712H6.395C5.843 16.712 5.395 16.264 5.395 15.712V8.288C5.395 7.736 5.843 7.288 6.395 7.288H17.605C18.157 7.288 18.605 7.736 18.605 8.288V15.712Z" fill="#FFB400"/>
</g>
<defs>
<clipPath id="clip0_204_44">
<rect width="24" height="24" rx="12" fill="white"/>
</clipPath>
</defs>
</svg>
