<svg width="24" height="24" viewBox="0 0 24 24" fill="none" xmlns="http://www.w3.org/2000/svg">
<rect width="24" height="24" rx="12" fill="#FFB400"/>
<g clip-path="url(#clip0_229_293)">
<path d="M12 11.125C11.5264 11.125 11.0722 10.9275 10.7373 10.5758C10.4024 10.2242 10.2143 9.74728 10.2143 9.25C10.2143 8.75272 10.4024 8.27581 10.7373 7.92417C11.0722 7.57254 11.5264 7.375 12 7.375C12.4736 7.375 12.9278 7.57254 13.2627 7.92417C13.5976 8.27581 13.7857 8.75272 13.7857 9.25C13.7857 9.49623 13.7395 9.74005 13.6498 9.96753C13.56 10.195 13.4285 10.4017 13.2627 10.5758C13.0969 10.7499 12.9 10.888 12.6834 10.9823C12.4667 11.0765 12.2345 11.125 12 11.125ZM12 4C10.6739 4 9.40215 4.55312 8.46447 5.53769C7.52678 6.52226 7 7.85761 7 9.25C7 13.1875 12 19 12 19C12 19 17 13.1875 17 9.25C17 7.85761 16.4732 6.52226 15.5355 5.53769C14.5979 4.55312 13.3261 4 12 4Z" fill="black"/>
</g>
<defs>
<clipPath id="clip0_229_293">
<rect width="10" height="15" fill="white" transform="translate(7 4)"/>
</clipPath>
</defs>
</svg>
