<svg width="24" height="24" viewBox="0 0 24 24" fill="none" xmlns="http://www.w3.org/2000/svg">
<g clip-path="url(#clip0_204_34)">
<path d="M12 24C18.6274 24 24 18.6274 24 12C24 5.37258 18.6274 0 12 0C5.37258 0 0 5.37258 0 12C0 18.6274 5.37258 24 12 24Z" fill="#FFB400"/>
<path d="M17.8404 6.90474L15.6982 17.7094C15.6982 17.7094 15.3982 18.4594 14.5732 18.0985L9.62793 14.3063L7.82793 13.4391L4.7998 12.4219C4.7998 12.4219 4.33574 12.2579 4.28886 11.8969C4.24199 11.536 4.81386 11.3438 4.81386 11.3438L16.8514 6.62349C16.8514 6.6188 17.8404 6.18286 17.8404 6.90474Z" fill="black"/>
<path d="M9.24375 17.5876C9.24375 17.5876 9.09844 17.5735 8.92031 17.0063C8.74219 16.4392 7.82812 13.4392 7.82812 13.4392L15.0984 8.82197C15.0984 8.82197 15.5203 8.56885 15.5016 8.82197C15.5016 8.82197 15.5766 8.86885 15.3516 9.0751C15.1266 9.28604 9.64219 14.2173 9.64219 14.2173" fill="#3E3E3E"/>
<path d="M11.5215 15.7594L9.5668 17.5453C9.5668 17.5453 9.41211 17.6625 9.24805 17.5875L9.62305 14.2734" fill="#666666"/>
</g>
<defs>
<clipPath id="clip0_204_34">
<rect width="24" height="24" fill="white"/>
</clipPath>
</defs>
</svg>
