<svg width="24" height="24" viewBox="0 0 24 24" fill="none" xmlns="http://www.w3.org/2000/svg">
<rect width="24" height="24" rx="12" fill="#FFB400"/>
<path d="M16.8901 11H18C18 8.14968 15.8507 6 13 6V7.11123C15.2542 7.11123 16.8901 8.74642 16.8901 11Z" fill="black"/>
<path d="M12.1753 9.97292C13.4739 9.97292 14.0278 10.5268 14.0278 11.8253H15.2629C15.2629 9.83399 14.1668 8.73798 12.1753 8.73798V9.97292ZM14.2884 13.3338C14.1698 13.226 14.0138 13.1684 13.8536 13.1734C13.6933 13.1784 13.5412 13.2454 13.4295 13.3603L11.9518 14.8799C11.5961 14.812 10.881 14.5891 10.1449 13.8549C9.40884 13.1183 9.18592 12.4014 9.11985 12.0482L10.6383 10.57C10.7534 10.4583 10.8206 10.3062 10.8255 10.1459C10.8305 9.98563 10.7729 9.82969 10.6649 9.71111L8.38315 7.20234C8.27512 7.08339 8.12496 7.01124 7.96457 7.00121C7.80419 6.99117 7.64621 7.04406 7.52419 7.14862L6.18419 8.29773C6.07743 8.40487 6.01371 8.54746 6.00511 8.69846C5.99585 8.85283 5.81924 12.5095 8.65486 15.3461C11.1286 17.8191 14.2273 18 15.0807 18C15.2054 18 15.282 17.9963 15.3024 17.9951C15.4534 17.9866 15.5959 17.9226 15.7025 17.8154L16.8511 16.4749C16.9557 16.3529 17.0087 16.195 16.9988 16.0346C16.9889 15.8743 16.9169 15.7241 16.798 15.616L14.2884 13.3338Z" fill="black"/>
</svg>
