<svg width="40" height="40" viewBox="0 0 40 40" fill="none" xmlns="http://www.w3.org/2000/svg">
<path d="M18.8163 25.4834C18.7447 25.5626 18.6779 25.6461 18.6163 25.7334C18.5533 25.8263 18.5028 25.9272 18.4663 26.0334C18.4183 26.1279 18.3846 26.229 18.3663 26.3334C18.3582 26.4443 18.3582 26.5557 18.3663 26.6667C18.3607 26.8853 18.4064 27.1022 18.4997 27.3C18.5745 27.5069 18.694 27.6947 18.8495 27.8502C19.005 28.0058 19.1929 28.1252 19.3997 28.2C19.5992 28.2882 19.8149 28.3338 20.033 28.3338C20.2511 28.3338 20.4668 28.2882 20.6663 28.2C20.8732 28.1252 21.061 28.0058 21.2165 27.8502C21.3721 27.6947 21.4915 27.5069 21.5663 27.3C21.6404 27.0974 21.6743 26.8823 21.6663 26.6667C21.6676 26.4474 21.6256 26.2299 21.5426 26.0269C21.4597 25.8238 21.3375 25.6391 21.183 25.4834C21.0281 25.3272 20.8437 25.2032 20.6406 25.1186C20.4375 25.0339 20.2197 24.9904 19.9997 24.9904C19.7797 24.9904 19.5618 25.0339 19.3587 25.1186C19.1556 25.2032 18.9713 25.3272 18.8163 25.4834ZM19.9997 3.33337C16.7033 3.33337 13.481 4.31086 10.7402 6.14221C7.99936 7.97357 5.86315 10.5765 4.60169 13.622C3.34023 16.6674 3.01017 20.0185 3.65326 23.2515C4.29635 26.4846 5.88369 29.4543 8.21457 31.7852C10.5454 34.116 13.5152 35.7034 16.7482 36.3465C19.9812 36.9896 23.3323 36.6595 26.3777 35.398C29.4232 34.1366 32.0261 32.0004 33.8575 29.2595C35.6889 26.5187 36.6663 23.2964 36.6663 20C36.6663 17.8113 36.2353 15.6441 35.3977 13.622C34.5601 11.5999 33.3324 9.76257 31.7848 8.21493C30.2372 6.66728 28.3998 5.43963 26.3777 4.60205C24.3556 3.76447 22.1884 3.33337 19.9997 3.33337V3.33337ZM19.9997 33.3334C17.3626 33.3334 14.7847 32.5514 12.5921 31.0863C10.3994 29.6212 8.69046 27.5388 7.68129 25.1025C6.67212 22.6661 6.40808 19.9853 6.92255 17.3988C7.43701 14.8124 8.70689 12.4367 10.5716 10.572C12.4363 8.70725 14.8121 7.43737 17.3985 6.9229C19.9849 6.40843 22.6658 6.67248 25.1021 7.68165C27.5385 8.69082 29.6209 10.3998 31.0859 12.5924C32.551 14.7851 33.333 17.363 33.333 20C33.333 23.5363 31.9283 26.9276 29.4278 29.4281C26.9273 31.9286 23.5359 33.3334 19.9997 33.3334V33.3334ZM19.9997 11.6667C19.1215 11.6661 18.2586 11.8969 17.4979 12.3358C16.7372 12.7746 16.1055 13.4061 15.6663 14.1667C15.5458 14.3564 15.4648 14.5685 15.4283 14.7903C15.3918 15.0121 15.4006 15.239 15.4541 15.4574C15.5075 15.6757 15.6046 15.8809 15.7395 16.0608C15.8743 16.2406 16.0442 16.3913 16.2388 16.5038C16.4334 16.6163 16.6488 16.6882 16.8719 16.7153C17.095 16.7424 17.3214 16.7241 17.5372 16.6615C17.7531 16.5989 17.9541 16.4932 18.1281 16.3509C18.3021 16.2086 18.4455 16.0325 18.5497 15.8334C18.6965 15.579 18.908 15.368 19.1626 15.2217C19.4172 15.0753 19.706 14.9989 19.9997 15C20.4417 15 20.8656 15.1756 21.1782 15.4882C21.4908 15.8008 21.6663 16.2247 21.6663 16.6667C21.6663 17.1087 21.4908 17.5327 21.1782 17.8452C20.8656 18.1578 20.4417 18.3334 19.9997 18.3334C19.5577 18.3334 19.1337 18.509 18.8212 18.8215C18.5086 19.1341 18.333 19.558 18.333 20V21.6667C18.333 22.1087 18.5086 22.5327 18.8212 22.8452C19.1337 23.1578 19.5577 23.3334 19.9997 23.3334C20.4417 23.3334 20.8656 23.1578 21.1782 22.8452C21.4908 22.5327 21.6663 22.1087 21.6663 21.6667V21.3667C22.7686 20.9667 23.6953 20.1921 24.2843 19.1782C24.8733 18.1642 25.0872 16.9755 24.8887 15.8199C24.6901 14.6642 24.0917 13.6151 23.198 12.8559C22.3043 12.0967 21.1723 11.6758 19.9997 11.6667V11.6667Z" fill="#FFBC57"/>
</svg>
