<svg width="80" height="80" viewBox="0 0 80 80" fill="none" xmlns="http://www.w3.org/2000/svg">
<path d="M13.9651 73.818C21.6778 73.818 27.9302 67.5656 27.9302 59.8529C27.9302 52.1402 21.6778 45.8878 13.9651 45.8878C6.25238 45.8878 0 52.1402 0 59.8529C0 67.5656 6.25238 73.818 13.9651 73.818Z" fill="#FFBC57"/>
<path d="M36.2093 24.9402C42.8202 24.9402 48.1794 19.581 48.1794 12.9701C48.1794 6.35919 42.8202 1 36.2093 1C29.5984 1 24.2393 6.35919 24.2393 12.9701C24.2393 19.581 29.5984 24.9402 36.2093 24.9402Z" fill="#FFBC57"/>
<path d="M60.0497 78.8055C71.0679 78.8055 79.9999 69.8735 79.9999 58.8554C79.9999 47.8372 71.0679 38.9053 60.0497 38.9053C49.0316 38.9053 40.0996 47.8372 40.0996 58.8554C40.0996 69.8735 49.0316 78.8055 60.0497 78.8055Z" fill="#FFBC57"/>
<path d="M41.1966 73.718C58.8256 73.718 73.1168 59.4268 73.1168 41.7978C73.1168 24.1687 58.8256 9.87756 41.1966 9.87756C23.5675 9.87756 9.27637 24.1687 9.27637 41.7978C9.27637 59.4268 23.5675 73.718 41.1966 73.718Z" fill="white"/>
<path d="M41.1967 74.4166C23.1419 74.4166 8.47852 59.7533 8.47852 41.6984C8.47852 23.6435 23.1419 9.07996 41.1967 9.07996C59.2516 9.07996 73.8152 23.7433 73.8152 41.7982C73.8152 59.853 59.1518 74.4166 41.1967 74.4166ZM41.1967 10.5762C23.9399 10.5762 9.97478 24.5413 9.97478 41.7982C9.97478 58.9553 23.9399 73.0201 41.1967 73.0201C58.3538 73.0201 72.4187 59.055 72.4187 41.7982C72.3189 24.5413 58.3538 10.5762 41.1967 10.5762Z" fill="#2B2929"/>
<path d="M40.5982 29.8278L34.3139 25.6382C30.2241 22.945 24.8376 23.5435 21.5458 27.1345L16.2591 32.8203C15.2615 33.9175 14.7628 35.3141 14.9623 36.8103L18.9523 68.2318C19.1518 69.8278 20.6481 71.0248 22.2441 70.8253L43.9897 68.132C45.5857 67.9325 46.7827 66.4363 46.5832 64.8402L42.693 33.4188C42.5932 31.9225 41.7952 30.6258 40.5982 29.8278Z" fill="white"/>
<path d="M21.9451 71.5239C21.1471 71.5239 20.3491 71.2247 19.6508 70.7259C18.8528 70.1274 18.3541 69.2296 18.2543 68.2321L14.364 36.9104C14.1645 35.2147 14.6633 33.5189 15.8603 32.3219L21.1471 26.6361C24.7381 22.7459 30.5236 22.0476 34.9127 25.0401L41.197 29.2296C42.5935 30.1274 43.4912 31.6237 43.6907 33.3194L47.581 64.7409C47.6807 65.7384 47.4812 66.7359 46.783 67.5339C46.1845 68.3319 45.2867 68.8306 44.2892 68.9304L22.5436 71.6237C22.2443 71.5239 22.0448 71.5239 21.9451 71.5239ZM28.8279 24.6411C26.3341 24.6411 23.9401 25.6386 22.1446 27.6336L16.8578 33.3194C16.0598 34.2172 15.6608 35.5139 15.7605 36.7109L19.6508 68.0326C19.7506 68.6311 20.0498 69.1299 20.5486 69.5289C21.0473 69.9279 21.6458 70.0276 22.2443 70.0276L43.99 67.3344C44.5885 67.2346 45.0872 66.9354 45.4862 66.4366C45.8852 65.9379 45.985 65.3394 45.985 64.7409L42.0947 33.3194C41.8952 32.1224 41.2967 31.0252 40.2992 30.3269L33.9152 26.2371C32.4189 25.2396 30.6234 24.6411 28.8279 24.6411Z" fill="#2B2929"/>
<path d="M46.0843 20.0524L38.9023 17.7581C34.3137 16.2618 29.2265 18.3566 27.0319 22.7456L23.5407 29.6284C22.9422 30.9252 22.9422 32.5212 23.5407 33.818L35.9098 62.9451C36.608 64.4414 38.3038 65.1396 39.8 64.5411L60.0494 55.8628C61.5457 55.2643 62.2439 53.4688 61.6454 51.9726L49.1766 22.8454C48.5781 21.5486 47.4808 20.5511 46.0843 20.0524Z" fill="white"/>
<path d="M38.6033 65.4391C37.107 65.4391 35.8103 64.5413 35.112 63.1448L22.8427 34.1174C22.1444 32.5213 22.2442 30.8256 22.9424 29.3293L26.4337 22.4465C28.8277 17.7583 34.2143 15.464 39.2018 17.06L46.3838 19.3543C47.9798 19.853 49.2766 21.05 49.8751 22.5463L62.2442 51.6735C63.0422 53.5687 62.1444 55.7632 60.2492 56.5612L40.0995 65.1398C39.6008 65.3393 39.102 65.4391 38.6033 65.4391ZM35.91 18.0575C32.5185 18.0575 29.4262 19.9528 27.8302 23.1448L24.3389 30.0276C23.7404 31.1248 23.7404 32.4216 24.2392 33.6186L36.6083 62.646C37.107 63.7433 38.4038 64.3418 39.6008 63.843L59.7504 55.2645C60.8477 54.7657 61.4462 53.469 60.9474 52.272L48.4786 23.1448C47.9798 22.0475 47.0821 21.1498 45.8851 20.7508L38.703 18.4565C37.8053 18.1573 36.8078 18.0575 35.91 18.0575Z" fill="#2B2929"/>
<path d="M35.8103 32.4215C35.112 32.4215 34.5135 32.3218 33.8153 32.0225C32.5185 31.5238 31.521 30.5263 30.9225 29.2295C30.324 27.9327 30.324 26.5362 30.9225 25.2395C31.4213 23.9427 32.4188 22.9452 33.7155 22.3467C35.0123 21.7482 36.4088 21.7482 37.7056 22.3467C39.0023 22.8455 39.9998 23.843 40.5983 25.1397C41.1968 26.4365 41.1968 27.833 40.5983 29.1297C40.0996 30.4265 39.1021 31.424 37.8053 32.0225C37.2068 32.222 36.5085 32.4215 35.8103 32.4215ZM35.8103 23.444C35.3115 23.444 34.8128 23.5437 34.314 23.7432C33.4163 24.1422 32.718 24.8405 32.319 25.7382C31.92 26.636 31.92 27.6335 32.319 28.631C32.718 29.5288 33.4163 30.227 34.314 30.626C35.2118 31.025 36.2093 31.025 37.2068 30.626C38.1046 30.227 38.8028 29.5288 39.2018 28.631C39.6008 27.7332 39.6008 26.7357 39.2018 25.7382C38.8028 24.8405 38.1046 24.1422 37.1071 23.7432C36.8078 23.5437 36.309 23.444 35.8103 23.444Z" fill="#2B2929"/>
<path d="M37.4066 28.4311C36.2096 28.4311 35.4116 27.8326 35.0126 27.3339C34.1148 26.2366 34.0151 24.5409 34.6136 22.4461C34.7133 22.0471 35.1123 21.8476 35.5113 21.9474C35.9103 22.0471 36.1098 22.4461 36.0101 22.8451C35.5113 24.3414 35.6111 25.7379 36.1098 26.3364C36.4091 26.7354 36.9078 26.8351 37.5063 26.8351C39.9004 26.6356 43.2919 23.5434 44.8879 20.0521C46.0849 17.5583 45.8854 15.8626 45.3866 15.1643C45.0874 14.7653 44.5886 14.5658 43.9901 14.5658C42.4939 14.6656 40.4989 15.9623 38.8031 17.9573C38.5038 18.2566 38.1048 18.3563 37.7058 18.0571C37.4066 17.7578 37.3068 17.3588 37.6061 16.9598C39.6011 14.6656 41.8954 13.1693 43.8904 12.9698C45.0874 12.87 46.0849 13.269 46.6834 14.1668C47.6809 15.5633 47.4814 17.9573 46.2844 20.5508C44.3891 24.6406 40.5986 28.0321 37.6061 28.2316C37.6061 28.4311 37.5063 28.4311 37.4066 28.4311Z" fill="#2B2929"/>
<path d="M39.7003 58.5562C39.6006 58.5562 39.5008 58.5562 39.4011 58.4565C39.0021 58.257 38.8026 57.858 39.0021 57.459L47.9796 35.2146C48.1792 34.8156 48.5782 34.6161 48.9772 34.8156C49.3762 35.0151 49.5757 35.4141 49.3762 35.8131L40.3986 58.0575C40.2989 58.3567 39.9996 58.5562 39.7003 58.5562Z" fill="#FFBC57"/>
<path d="M39.8006 42.6957C40.4989 44.1919 39.7009 45.9875 38.2046 46.6857C36.7084 47.384 34.9128 46.586 34.2146 45.0897C33.5163 43.5934 34.3143 41.7979 35.8106 41.0997C37.4066 40.4014 39.2021 41.0997 39.8006 42.6957Z" fill="white"/>
<path d="M37.0074 47.5835C36.5086 47.5835 36.0099 47.4838 35.6109 47.2843C34.7131 46.8853 33.9151 46.187 33.5161 45.2893C32.7181 43.394 33.6158 41.1995 35.5111 40.3017C37.4064 39.5037 39.6009 40.4015 40.4986 42.2967C40.8976 43.1945 40.8976 44.2918 40.4986 45.1895C40.0996 46.0873 39.4014 46.8853 38.5036 47.2843C38.0049 47.4838 37.5061 47.5835 37.0074 47.5835ZM37.0074 41.5985C36.7081 41.5985 36.4089 41.6982 36.1096 41.798C34.9126 42.2967 34.4138 43.5935 34.9126 44.7905C35.1121 45.389 35.6109 45.788 36.1096 45.9875C36.7081 46.187 37.3066 46.187 37.8054 45.9875C38.4039 45.788 38.8029 45.2893 39.0024 44.7905C39.2019 44.192 39.2019 43.5935 39.0024 43.0947C38.7031 42.0972 37.9051 41.5985 37.0074 41.5985Z" fill="#FFBC57"/>
<path d="M54.0643 48.3818C54.7626 49.878 53.9646 51.6736 52.4683 52.3718C50.972 53.0701 49.1765 52.2721 48.4783 50.7758C47.78 49.2795 48.578 47.484 50.0743 46.7858C51.6703 46.1873 53.4658 46.8855 54.0643 48.3818Z" fill="white"/>
<path d="M51.272 53.3689C49.7757 53.3689 48.3792 52.4712 47.7807 51.0747C46.9827 49.1794 47.8805 46.9849 49.7757 46.0871C51.671 45.2891 53.8655 46.1869 54.7633 48.0821C55.5613 49.9774 54.6635 52.1719 52.7683 53.0697C52.2695 53.2692 51.7708 53.3689 51.272 53.3689ZM51.272 47.2841C50.9728 47.2841 50.6735 47.3839 50.3743 47.4836C49.1772 47.9824 48.6785 49.2792 49.1772 50.4762C49.676 51.6732 50.9728 52.1719 52.1698 51.6732C53.3668 51.1744 53.8655 49.8777 53.3668 48.6806C53.0675 47.8826 52.1698 47.2841 51.272 47.2841Z" fill="#FFBC57"/>
<path d="M22.3439 54.965C21.9449 54.965 21.6457 54.6657 21.6457 54.2667L19.8502 39.6034C19.7504 39.2044 20.0497 38.8054 20.5484 38.8054C20.9474 38.7056 21.3464 39.0049 21.3464 39.5036L23.1419 54.167C23.1419 54.566 22.8427 54.8652 22.3439 54.965C22.3439 54.965 22.4437 54.965 22.3439 54.965Z" fill="#2B2929"/>
<path d="M23.4407 63.4439C23.0417 63.4439 22.7425 63.1447 22.7425 62.7457L22.2437 58.7556C22.144 58.3566 22.4432 57.9576 22.942 57.9576C23.341 57.9576 23.74 58.1571 23.74 58.6559L24.2387 62.6459C24.139 62.9452 23.9395 63.3442 23.4407 63.4439Z" fill="#2B2929"/>
</svg>
