<svg width="80" height="80" viewBox="0 0 80 80" fill="none" xmlns="http://www.w3.org/2000/svg">
<path d="M62.3177 40.8467C70.4997 40.8467 77.1326 34.2139 77.1326 26.0319C77.1326 17.8499 70.4997 11.217 62.3177 11.217C54.1357 11.217 47.5029 17.8499 47.5029 26.0319C47.5029 34.2139 54.1357 40.8467 62.3177 40.8467Z" fill="#FFBC57"/>
<path d="M21.6828 25.3968C28.6959 25.3968 34.3812 19.7116 34.3812 12.6984C34.3812 5.68527 28.6959 0 21.6828 0C14.6696 0 8.98438 5.68527 8.98438 12.6984C8.98438 19.7116 14.6696 25.3968 21.6828 25.3968Z" fill="#FFBC57"/>
<path d="M23.164 80.0002C34.8526 80.0002 44.328 70.5247 44.328 58.8361C44.328 47.1476 34.8526 37.6721 23.164 37.6721C11.4755 37.6721 2 47.1476 2 58.8361C2 70.5247 11.4755 80.0002 23.164 80.0002Z" fill="#FFBC57"/>
<path d="M39.3546 23.3864C32.3705 24.2329 26.6562 29.8414 25.7038 36.7197C25.1747 40.4234 25.9155 43.9155 27.6086 46.8784L25.4922 55.0266L33.6403 53.016C36.6033 54.7091 40.0954 55.4499 43.7991 54.9208C50.7832 53.8626 56.2858 48.2541 57.1324 41.27C58.4022 30.7938 49.725 22.1165 39.3546 23.3864Z" fill="white"/>
<path d="M41.3654 55.873C38.614 55.873 35.9685 55.238 33.5347 53.8624L25.704 55.7671C25.3865 55.873 25.1749 55.7671 24.9632 55.5555C24.7516 55.3439 24.6458 55.0264 24.7516 54.8148L26.6564 46.9841C24.9632 43.8095 24.3283 40.2116 24.8574 36.6137C25.9156 29.2063 31.8415 23.492 39.249 22.5396C44.4341 21.9047 49.5135 23.5978 53.1114 27.3015C56.8151 31.0052 58.5082 35.9788 57.8733 41.164C56.9209 48.5714 51.2066 54.4973 43.7992 55.5555C43.0585 55.7671 42.2119 55.873 41.3654 55.873ZM33.6405 52.1693C33.7463 52.1693 33.9579 52.1693 34.0638 52.2751C37.0267 53.9682 40.3072 54.4973 43.6934 54.074C50.3601 53.1216 55.5453 47.7248 56.3918 41.0581C56.9209 36.4021 55.4394 31.746 52.0532 28.4655C48.7728 25.1851 44.1167 23.5978 39.4606 24.1269C32.7939 24.9735 27.3971 30.1587 26.4447 36.8253C25.9156 40.2116 26.5505 43.492 28.2437 46.455C28.3495 46.6666 28.3495 46.8782 28.3495 46.9841L26.6564 53.9682L33.5347 52.2751C33.5347 52.1693 33.6405 52.1693 33.6405 52.1693Z" fill="#2B2929"/>
<path d="M41.365 44.3389C40.9417 44.3389 40.5184 44.0214 40.5184 43.4923V42.8574C40.5184 40.3177 41.9999 39.1537 43.1639 38.3072C44.2221 37.5664 44.9628 36.9315 44.9628 35.45C44.9628 33.7569 43.9046 32.3812 42.4232 31.958C41.2591 31.6405 39.9893 31.8521 39.0369 32.4871C38.0845 33.2278 37.5554 34.286 37.5554 35.45C37.5554 35.8733 37.238 36.2966 36.7089 36.2966C36.2856 36.2966 35.8623 35.9791 35.8623 35.45C35.8623 33.7569 36.7089 32.1696 37.9787 31.2172C39.3544 30.159 41.0475 29.9474 42.7406 30.3707C44.9628 31.0056 46.4443 33.0162 46.4443 35.45C46.4443 37.7781 45.0687 38.7304 43.9046 39.577C42.8464 40.4236 41.8941 41.0585 41.8941 42.8574V43.4923C42.2115 44.0214 41.8941 44.3389 41.365 44.3389Z" fill="#FFBC57"/>
<path d="M42.1056 47.4077C41.6823 46.9844 41.0474 46.9844 40.6241 47.4077C40.4125 47.6193 40.3066 47.831 40.3066 48.1484C40.3066 48.4659 40.4125 48.6775 40.6241 48.8892C40.8357 49.1008 41.0474 49.2066 41.3648 49.2066C41.6823 49.2066 41.8939 49.1008 42.1056 48.8892C42.3172 48.6775 42.423 48.4659 42.423 48.1484C42.423 47.831 42.3172 47.5135 42.1056 47.4077Z" fill="#FFBC57"/>
<path d="M41.3654 70.8996C40.9422 70.8996 40.5189 70.5821 40.5189 70.053C40.5189 69.6297 40.8363 69.2065 41.3654 69.2065C57.8734 69.2065 71.3125 55.7673 71.3125 39.2594C71.3125 22.9631 57.8734 9.52393 41.3654 9.52393C24.9633 9.52393 11.5242 22.9631 11.5242 39.3652C11.5242 39.8943 11.2067 40.2118 10.6776 40.2118C10.2543 40.2118 9.83105 39.8943 9.83105 39.3652C9.83105 22.0107 23.9051 7.83081 41.2596 7.83081C58.6141 7.83081 72.8998 22.0107 72.8998 39.3652C72.8998 56.7197 58.7199 70.8996 41.3654 70.8996Z" fill="#2B2929"/>
<path d="M44.54 73.2279H38.1908C35.8628 73.2279 33.958 71.3232 33.958 68.9951C33.958 66.6671 35.8628 64.7623 38.1908 64.7623H44.54C46.8681 64.7623 48.7728 66.6671 48.7728 68.9951C48.7728 71.429 46.9739 73.2279 44.54 73.2279Z" fill="white"/>
<path d="M44.5399 74.0743H38.1907C35.4394 74.0743 33.1113 71.852 33.1113 68.9949C33.1113 66.2436 35.3336 63.9155 38.1907 63.9155H44.5399C47.2912 63.9155 49.6193 66.1377 49.6193 68.9949C49.6193 71.852 47.397 74.0743 44.5399 74.0743ZM38.1907 65.6086C36.2859 65.6086 34.6986 67.196 34.6986 69.1007C34.6986 71.0055 36.2859 72.5928 38.1907 72.5928H44.5399C46.4447 72.5928 48.032 71.0055 48.032 69.1007C48.032 67.196 46.4447 65.6086 44.5399 65.6086H38.1907Z" fill="#2B2929"/>
<path d="M15.9685 51.0058C11.3125 51.0058 7.50293 47.1962 7.50293 42.5402V36.191C7.50293 31.5349 11.3125 27.7253 15.9685 27.7253C17.1326 27.7253 18.0849 28.6777 18.0849 29.8417V48.8894C18.0849 50.1592 17.1326 51.0058 15.9685 51.0058Z" fill="white"/>
<path d="M15.9684 51.852C10.8891 51.852 6.65625 47.725 6.65625 42.5398V36.1906C6.65625 31.1112 10.7832 26.8784 15.9684 26.8784C17.5557 26.8784 18.9314 28.1483 18.9314 29.8414V48.889C18.9314 50.5821 17.6615 51.852 15.9684 51.852ZM15.9684 28.5715C11.7356 28.5715 8.24355 32.0636 8.24355 36.2964V42.6456C8.24355 46.8784 11.7356 50.3705 15.9684 50.3705C16.7092 50.3705 17.3441 49.7356 17.3441 48.9948V29.9472C17.3441 29.2065 16.7092 28.5715 15.9684 28.5715Z" fill="#2B2929"/>
<path d="M12.7938 46.561C12.3705 46.561 11.9473 46.2435 11.9473 45.7144V33.016C11.9473 32.5927 12.2647 32.1694 12.7938 32.1694C13.2171 32.1694 13.6404 32.4869 13.6404 33.016V45.7144C13.6404 46.2435 13.3229 46.561 12.7938 46.561Z" fill="#2B2929"/>
<path d="M66.7619 51.0058C65.5979 51.0058 64.6455 50.0534 64.6455 48.8894V29.8417C64.6455 28.6777 65.5979 27.7253 66.7619 27.7253C71.418 27.7253 75.2275 31.5349 75.2275 36.191V42.5402C75.2275 47.3021 71.5238 51.0058 66.7619 51.0058Z" fill="white"/>
<path d="M66.7624 51.852C65.1751 51.852 63.9053 50.5821 63.9053 48.889V29.8414C63.9053 28.2541 65.1751 26.8784 66.7624 26.8784C71.8418 26.8784 76.0746 31.0054 76.0746 36.1906V42.5398C76.0746 47.725 71.9476 51.852 66.7624 51.852ZM66.7624 28.5715C66.0217 28.5715 65.4926 29.2065 65.4926 29.9472V48.9948C65.4926 49.7356 66.1275 50.3705 66.7624 50.3705C70.9952 50.3705 74.4873 46.8784 74.4873 42.6456V36.2964C74.4873 31.9578 70.9952 28.5715 66.7624 28.5715Z" fill="#2B2929"/>
<path d="M69.9364 46.561C69.5131 46.561 69.0898 46.2435 69.0898 45.7144V33.016C69.0898 32.5927 69.4073 32.1694 69.9364 32.1694C70.3597 32.1694 70.783 32.4869 70.783 33.016V45.7144C70.783 46.2435 70.4655 46.561 69.9364 46.561Z" fill="#2B2929"/>
<path d="M23.4813 18.5188C23.5871 18.5188 23.5871 18.413 23.4813 18.5188C23.2697 18.6247 22.9522 18.8363 22.6348 18.9421C23.058 18.8363 23.2697 18.7305 23.4813 18.5188Z" fill="#FFBC57"/>
<path d="M41.3652 5.50305C32.8996 5.50305 25.1747 8.57183 19.2488 13.757C18.1906 14.6036 18.1906 16.1909 19.143 17.1433L20.4128 18.4131C21.2594 19.2597 22.635 19.2597 23.5874 18.5189C28.3493 14.3919 34.5927 11.9581 41.471 11.9581C48.2435 11.9581 54.5927 14.3919 59.3546 18.5189C60.307 19.2597 61.6827 19.2597 62.5292 18.4131L63.7991 17.1433C64.7515 16.1909 64.7515 14.6036 63.6933 13.757C57.6615 8.67765 49.8308 5.50305 41.3652 5.50305Z" fill="white"/>
<path d="M60.8361 19.8945C60.0953 19.8945 59.3546 19.6828 58.8255 19.1537C53.9578 14.9209 47.8202 12.6987 41.3652 12.6987C35.016 12.6987 28.8784 15.0268 24.0107 19.1537C22.7408 20.2119 20.9419 20.2119 19.7779 19.0479L18.508 17.7781C17.8731 17.1432 17.5557 16.2966 17.5557 15.45C17.5557 14.6035 17.9789 13.7569 18.6139 13.2278C24.8573 7.83099 32.8996 4.76221 41.2594 4.76221C49.6192 4.76221 57.6615 7.72517 63.9049 13.2278C64.5398 13.7569 64.9631 14.6035 64.9631 15.45C64.9631 16.2966 64.6456 17.1432 64.0107 17.7781L62.7409 19.0479C62.4234 19.577 61.5768 19.8945 60.8361 19.8945ZM41.3652 11.1114C48.1377 11.1114 54.5927 13.5453 59.7779 17.8839C60.4128 18.413 61.2594 18.413 61.8943 17.7781L63.1641 16.5082C63.4816 16.1908 63.5874 15.7675 63.5874 15.3442C63.5874 14.9209 63.3758 14.4977 63.0583 14.286C57.0266 9.20665 49.3017 6.34951 41.3652 6.34951C33.4287 6.34951 25.7038 9.20665 19.7779 14.3918C19.4604 14.7093 19.2488 15.0268 19.2488 15.45C19.2488 15.8733 19.3546 16.2966 19.6721 16.6141L20.9419 17.8839C21.471 18.413 22.4234 18.5188 23.0583 17.9897C28.1377 13.5453 34.6985 11.1114 41.3652 11.1114Z" fill="#2B2929"/>
</svg>
