<svg width="80" height="80" viewBox="0 0 80 80" fill="none" xmlns="http://www.w3.org/2000/svg">
<path d="M66.1729 40.8023C73.8094 40.8023 80 34.6116 80 26.9751C80 19.3386 73.8094 13.1479 66.1729 13.1479C58.5363 13.1479 52.3457 19.3386 52.3457 26.9751C52.3457 34.6116 58.5363 40.8023 66.1729 40.8023Z" fill="#FFBC57"/>
<path d="M34.2718 24.7037C40.8174 24.7037 46.1236 19.3974 46.1236 12.8519C46.1236 6.30625 40.8174 1 34.2718 1C27.7262 1 22.4199 6.30625 22.4199 12.8519C22.4199 19.3974 27.7262 24.7037 34.2718 24.7037Z" fill="#FFBC57"/>
<path d="M19.7531 78.5308C30.6624 78.5308 39.5062 69.6871 39.5062 58.7777C39.5062 47.8684 30.6624 39.0247 19.7531 39.0247C8.84376 39.0247 0 47.8684 0 58.7777C0 69.6871 8.84376 78.5308 19.7531 78.5308Z" fill="#FFBC57"/>
<path d="M69.0371 41.6289L63.9013 39.4561H50.0742C47.9013 39.4561 46.1235 37.6783 46.1235 35.5055V20.6907H39.21V60.1968H66.6668C67.4569 60.1968 68.247 59.9006 68.7408 59.308L69.926 58.1228C70.5186 57.5302 70.8149 56.8388 70.8149 56.0487V44.2956C70.8149 43.1104 70.1235 42.024 69.0371 41.6289Z" fill="white"/>
<path d="M63.1112 41.6289L57.9754 39.4561H50.0742C47.9013 39.4561 46.1235 37.6783 46.1235 35.5055V20.6907H39.21V60.1968H60.7408C61.5309 60.1968 62.3211 59.9006 62.8149 59.308L64.0001 58.1228C64.5927 57.5302 64.889 56.8388 64.889 56.0487V44.2956C64.889 43.1104 64.1976 42.024 63.1112 41.6289Z" fill="white"/>
<path d="M60.9385 47.3574L63.9014 53.2833H70.815V47.3574H60.9385Z" fill="white"/>
<path d="M60.9385 47.3574L62.9138 51.308H66.8644C67.457 51.308 67.8521 50.913 67.8521 50.3204V47.3574H60.9385Z" fill="white"/>
<path d="M70.8148 53.9749H63.9012C63.6049 53.9749 63.4074 53.7774 63.2099 53.5798L60.2469 47.6539C60.1482 47.4564 60.1482 47.1601 60.2469 46.9626C60.3457 46.765 60.642 46.5675 60.8395 46.5675H70.7161C71.1111 46.5675 71.5062 46.8638 71.5062 47.3576V53.2836C71.605 53.6786 71.3087 53.9749 70.8148 53.9749ZM64.3951 52.4934H70.1235V48.049H62.2222L64.3951 52.4934Z" fill="#2B2929"/>
<path d="M50.0742 39.4561H63.9013L56.2964 23.9499C55.3087 21.9746 53.2346 20.6907 50.963 20.6907H46.1235V35.5055C46.1235 37.6783 47.9013 39.4561 50.0742 39.4561Z" fill="white"/>
<path d="M56.2964 23.9499C55.3087 21.9746 53.2346 20.6907 50.963 20.6907H46.1235C48.2964 20.6907 50.3704 21.9746 51.3581 23.9499L58.963 39.4561H63.9013L56.2964 23.9499Z" fill="white"/>
<path d="M63.9014 40.1477H50.0742C47.5063 40.1477 45.3335 38.0736 45.3335 35.5057V20.6909C45.3335 20.2958 45.6298 19.9008 46.1236 19.9008H50.9631C53.531 19.9008 55.8026 21.2835 56.9878 23.6538L64.5928 39.16C64.6915 39.3575 64.6915 39.6538 64.5928 39.8514C64.3952 40.0489 64.1977 40.1477 63.9014 40.1477ZM46.9137 21.3822V35.5057C46.9137 37.2835 48.3952 38.6662 50.173 38.6662H62.815L55.7039 24.2464C54.815 22.4687 53.0372 21.3822 51.0619 21.3822H46.9137V21.3822Z" fill="#2B2929"/>
<path d="M9.58029 12.7894C8.49387 12.7894 7.60498 13.6783 7.60498 14.7647V58.2215C7.60498 59.3079 8.49387 60.1968 9.58029 60.1968H39.2099V14.7647C39.2099 13.6783 38.321 12.7894 37.2346 12.7894H9.58029V12.7894Z" fill="white"/>
<path d="M9.58029 12.7894C8.49387 12.7894 7.60498 13.6783 7.60498 14.7647V55.2586H31.3087C32.3951 55.2586 33.284 54.3697 33.284 53.2833V12.7894H9.58029V12.7894Z" fill="white"/>
<path d="M39.21 60.8886H9.58037C8.09889 60.8886 6.81494 59.7035 6.81494 58.1232V14.6664C6.91371 13.1849 8.09889 11.9998 9.58037 11.9998H37.2347C38.7162 11.9998 40.0001 13.1849 40.0001 14.7652V60.1973C40.0001 60.5923 39.7038 60.8886 39.21 60.8886ZM9.58037 13.4812C8.88902 13.4812 8.29642 14.0738 8.29642 14.7652V58.222C8.29642 58.9133 8.88902 59.5059 9.58037 59.5059H38.5186V14.7652C38.5186 14.0738 37.9261 13.4812 37.2347 13.4812H9.58037Z" fill="#2B2929"/>
<path d="M66.6668 60.8883H39.21C38.815 60.8883 38.4199 60.592 38.4199 60.0982V20.592C38.4199 20.1969 38.7162 19.8019 39.21 19.8019H46.1236C46.5187 19.8019 46.9137 20.0982 46.9137 20.592V35.4068C46.9137 37.1846 48.3952 38.5673 50.173 38.5673H64.0002C64.0989 38.5673 64.1977 38.5673 64.2965 38.6661L69.4323 40.8389C70.815 41.4315 71.7039 42.7155 71.7039 44.1969V55.8513C71.7039 56.8389 71.3088 57.7278 70.6175 58.5179L69.4323 59.7031C68.5434 60.4932 67.6545 60.8883 66.6668 60.8883ZM40.0002 59.4068H66.6668C67.2594 59.4068 67.852 59.2093 68.2471 58.7155L69.4323 57.5303C69.8273 57.1352 70.1236 56.5426 70.1236 55.95V44.2957C70.1236 43.4068 69.6298 42.6167 68.7409 42.2216L63.8026 40.0488H50.0742C47.5063 40.0488 45.3335 37.9747 45.3335 35.4068V21.3821H39.9014V59.4068H40.0002Z" fill="#2B2929"/>
<path d="M23.4074 66.1228C26.6802 66.1228 29.3333 63.4697 29.3333 60.1969C29.3333 56.9241 26.6802 54.271 23.4074 54.271C20.1346 54.271 17.4814 56.9241 17.4814 60.1969C17.4814 63.4697 20.1346 66.1228 23.4074 66.1228Z" fill="white"/>
<path d="M26.568 55.0614C27.1606 55.9503 27.4569 57.0367 27.4569 58.1231C27.4569 61.3824 24.7902 64.0491 21.531 64.0491C20.4445 64.0491 19.3581 63.7528 18.4692 63.1602C19.5557 64.8392 21.3334 66.0244 23.5063 66.0244C26.7655 66.0244 29.4322 63.3577 29.4322 60.0984C29.3334 58.0244 28.247 56.1478 26.568 55.0614Z" fill="white"/>
<path d="M23.4075 66.8143C19.7531 66.8143 16.6914 63.8513 16.6914 60.0983C16.6914 56.4439 19.6544 53.3822 23.4075 53.3822C27.1605 53.3822 30.1235 56.3452 30.1235 60.0983C30.1235 63.8513 27.1605 66.8143 23.4075 66.8143ZM23.4075 54.9624C20.5433 54.9624 18.1729 57.3328 18.1729 60.197C18.1729 63.0612 20.5433 65.4316 23.4075 65.4316C26.2717 65.4316 28.642 63.0612 28.642 60.197C28.642 57.3328 26.2717 54.9624 23.4075 54.9624Z" fill="#2B2929"/>
<path d="M23.4074 62.1722C24.4984 62.1722 25.3827 61.2878 25.3827 60.1969C25.3827 59.1059 24.4984 58.2216 23.4074 58.2216C22.3165 58.2216 21.4321 59.1059 21.4321 60.1969C21.4321 61.2878 22.3165 62.1722 23.4074 62.1722Z" fill="white"/>
<path d="M23.4075 62.8636C21.926 62.8636 20.6421 61.6784 20.6421 60.0982C20.6421 58.6167 21.8273 57.3328 23.4075 57.3328C24.9878 57.3328 26.173 58.5179 26.173 60.0982C26.173 61.6784 24.9878 62.8636 23.4075 62.8636ZM23.4075 58.913C22.7162 58.913 22.1236 59.5056 22.1236 60.197C22.1236 60.8883 22.7162 61.4809 23.4075 61.4809C24.0989 61.4809 24.6915 60.8883 24.6915 60.197C24.6915 59.5056 24.0989 58.913 23.4075 58.913Z" fill="#2B2929"/>
<path d="M55.0124 66.1228C58.2851 66.1228 60.9383 63.4697 60.9383 60.1969C60.9383 56.9241 58.2851 54.271 55.0124 54.271C51.7396 54.271 49.0864 56.9241 49.0864 60.1969C49.0864 63.4697 51.7396 66.1228 55.0124 66.1228Z" fill="white"/>
<path d="M58.173 55.0614C58.7656 55.9503 59.0619 57.0367 59.0619 58.1231C59.0619 61.3824 56.3952 64.0491 53.1359 64.0491C52.0495 64.0491 50.9631 63.7528 50.0742 63.1602C51.1606 64.8392 52.9384 66.0244 55.1113 66.0244C58.3705 66.0244 61.0372 63.3577 61.0372 60.0984C60.9384 58.0244 59.852 56.1478 58.173 55.0614Z" fill="white"/>
<path d="M55.0124 66.8143C51.3581 66.8143 48.2964 63.8513 48.2964 60.0983C48.2964 56.4439 51.2593 53.3822 55.0124 53.3822C58.6668 53.3822 61.7285 56.3452 61.7285 60.0983C61.7285 63.8513 58.7655 66.8143 55.0124 66.8143ZM55.0124 54.9624C52.1482 54.9624 49.7779 57.3328 49.7779 60.197C49.7779 63.0612 52.1482 65.4316 55.0124 65.4316C57.8766 65.4316 60.247 63.0612 60.247 60.197C60.247 57.3328 57.8766 54.9624 55.0124 54.9624Z" fill="#2B2929"/>
<path d="M55.0124 62.1722C56.1034 62.1722 56.9877 61.2878 56.9877 60.1969C56.9877 59.1059 56.1034 58.2216 55.0124 58.2216C53.9215 58.2216 53.0371 59.1059 53.0371 60.1969C53.0371 61.2878 53.9215 62.1722 55.0124 62.1722Z" fill="white"/>
<path d="M55.0125 62.8636C53.531 62.8636 52.2471 61.6784 52.2471 60.0982C52.2471 58.6167 53.4323 57.3328 55.0125 57.3328C56.494 57.3328 57.7779 58.5179 57.7779 60.0982C57.7779 61.6784 56.5927 62.8636 55.0125 62.8636ZM55.0125 58.913C54.3211 58.913 53.7286 59.5056 53.7286 60.197C53.7286 60.8883 54.3211 61.4809 55.0125 61.4809C55.7039 61.4809 56.2965 60.8883 56.2965 60.197C56.2965 59.5056 55.7039 58.913 55.0125 58.913Z" fill="#2B2929"/>
<path d="M51.062 44.0982H47.1114C46.7164 44.0982 46.3213 43.8019 46.3213 43.3081C46.3213 42.913 46.6176 42.5179 47.1114 42.5179H51.062C51.4571 42.5179 51.8522 42.8142 51.8522 43.3081C51.8522 43.8019 51.5559 44.0982 51.062 44.0982Z" fill="#2B2929"/>
<path d="M34.2719 38.1723H12.5435C12.1485 38.1723 11.7534 37.876 11.7534 37.3822C11.7534 36.9871 12.0497 36.592 12.5435 36.592H34.2719C34.667 36.592 35.0621 36.8883 35.0621 37.3822C35.0621 37.876 34.7658 38.1723 34.2719 38.1723Z" fill="#FFBC57"/>
<path d="M34.2719 44.0982H12.5435C12.1485 44.0982 11.7534 43.8019 11.7534 43.3081C11.7534 42.913 12.0497 42.5179 12.5435 42.5179H34.2719C34.667 42.5179 35.0621 42.8142 35.0621 43.3081C35.0621 43.8019 34.7658 44.0982 34.2719 44.0982Z" fill="#FFBC57"/>
<path d="M34.2719 50.0241H12.5435C12.1485 50.0241 11.7534 49.7278 11.7534 49.234C11.7534 48.8389 12.0497 48.4438 12.5435 48.4438H34.2719C34.667 48.4438 35.0621 48.7401 35.0621 49.234C35.0621 49.7278 34.7658 50.0241 34.2719 50.0241Z" fill="#FFBC57"/>
<path d="M34.2719 32.2464H12.5435C12.1485 32.2464 11.7534 31.9501 11.7534 31.4563C11.7534 31.0612 12.0497 30.6661 12.5435 30.6661H34.2719C34.667 30.6661 35.0621 30.9624 35.0621 31.4563C35.0621 31.9501 34.7658 32.2464 34.2719 32.2464Z" fill="#FFBC57"/>
<path d="M34.2719 26.3205H12.5435C12.1485 26.3205 11.7534 26.0242 11.7534 25.5304C11.7534 25.1353 12.0497 24.7402 12.5435 24.7402H34.2719C34.667 24.7402 35.0621 25.0365 35.0621 25.5304C35.0621 26.0242 34.7658 26.3205 34.2719 26.3205Z" fill="#2B2929"/>
<path d="M34.2719 20.3945H12.5435C12.1485 20.3945 11.7534 20.0982 11.7534 19.6043C11.7534 19.2093 12.0497 18.8142 12.5435 18.8142H34.2719C34.667 18.8142 35.0621 19.1105 35.0621 19.6043C35.0621 20.0982 34.7658 20.3945 34.2719 20.3945Z" fill="#2B2929"/>
</svg>
