<svg width="20" height="16" viewBox="0 0 20 16" fill="none" xmlns="http://www.w3.org/2000/svg">
<g clip-path="url(#clip0_975_4021)">
<path d="M0 2.21633V1.69919C0 1.36497 0.131696 1.04445 0.366117 0.808119C0.600537 0.571793 0.918479 0.439026 1.25 0.439026L18.75 0.439026C19.0815 0.439026 19.3995 0.571793 19.6339 0.808119C19.8683 1.04445 20 1.36497 20 1.69919V2.21633L10 8.51714L0 2.21633ZM10.3313 9.79463C10.2319 9.85715 10.1171 9.89029 10 9.89029C9.88288 9.89029 9.76811 9.85715 9.66875 9.79463L0 3.70237V14.3008C0 14.635 0.131696 14.9556 0.366117 15.1919C0.600537 15.4282 0.918479 15.561 1.25 15.561H18.75C19.0815 15.561 19.3995 15.4282 19.6339 15.1919C19.8683 14.9556 20 14.635 20 14.3008V3.70237L10.3313 9.79463Z" fill="#9700FF"/>
</g>
<defs>
<clipPath id="clip0_975_4021">
<rect width="20" height="15.122" fill="white" transform="translate(0 0.439026)"/>
</clipPath>
</defs>
</svg>
