<svg width="20" height="20" viewBox="0 0 20 20" fill="none" xmlns="http://www.w3.org/2000/svg">
<path d="M10.0002 1.86993C8.23266 1.87187 6.53812 2.55774 5.28831 3.77707C4.0385 4.9964 3.33548 6.64961 3.3335 8.374C3.3335 11.0203 5.30266 13.2179 7.3885 15.5439C8.0485 16.2805 8.73183 17.0423 9.34016 17.813C9.41801 17.9116 9.518 17.9913 9.63242 18.0462C9.74684 18.1011 9.87265 18.1297 10.0002 18.1297C10.1277 18.1297 10.2535 18.1011 10.3679 18.0462C10.4823 17.9913 10.5823 17.9116 10.6602 17.813C11.2685 17.0423 11.9518 16.2805 12.6118 15.5439C14.6977 13.2179 16.6668 11.0203 16.6668 8.374C16.6648 6.64961 15.9618 4.9964 14.712 3.77707C13.4622 2.55774 11.7677 1.87187 10.0002 1.86993ZM10.0002 10.813C9.50571 10.813 9.02236 10.67 8.61124 10.402C8.20011 10.134 7.87968 9.75305 7.69046 9.30737C7.50125 8.8617 7.45174 8.37129 7.5482 7.89817C7.64466 7.42505 7.88276 6.99045 8.2324 6.64935C8.58203 6.30825 9.02748 6.07595 9.51244 5.98184C9.99739 5.88773 10.5001 5.93603 10.9569 6.12064C11.4137 6.30524 11.8041 6.61785 12.0788 7.01895C12.3535 7.42005 12.5002 7.89161 12.5002 8.374C12.5002 9.02087 12.2368 9.64124 11.7679 10.0987C11.2991 10.5561 10.6632 10.813 10.0002 10.813Z" fill="#9700FF"/>
</svg>
