<svg width="50" height="50" viewBox="0 0 50 50" fill="none" xmlns="http://www.w3.org/2000/svg">
<path d="M25 0C24.5359 0 24.0908 0.184374 23.7626 0.512563C23.4344 0.840752 23.25 1.28587 23.25 1.75V41.75C23.25 42.2141 23.4344 42.6592 23.7626 42.9874C24.0908 43.3156 24.5359 43.5 25 43.5C25.4641 43.5 25.9092 43.3156 26.2374 42.9874C26.5656 42.6592 26.75 42.2141 26.75 41.75V23.5H48.25C48.7141 23.5 49.1592 23.3156 49.4874 22.9874C49.8156 22.6592 50 22.2141 50 21.75V1.75C50 1.28587 49.8156 0.840752 49.4874 0.512563C49.1592 0.184374 48.7141 0 48.25 0H25.25C25.2076 0.000128324 25.1653 0.00179609 25.123 0.005C25.0821 0.00189136 25.041 0.000223658 25 0Z" fill="white"/>
<path d="M19.002 38.3965C13.705 39.1455 10 40.9365 10 43.572C10 47.122 16.1905 50.0005 25 50.0005C33.8095 50.0005 40 47.1225 40 43.572C40 40.936 36.295 39.1455 30.9985 38.397L30.2645 39.6465C34.257 40.2 37 41.3645 37 42.715C37 44.6085 31.6275 46.1435 25 46.1435C18.3725 46.1435 13 44.6085 13 42.715C12.9995 41.369 15.725 40.206 19.7295 39.65C19.4875 39.232 19.2445 38.815 19.002 38.3965Z" fill="white"/>
</svg>
