<svg width="24" height="24" viewBox="0 0 24 24" fill="none" xmlns="http://www.w3.org/2000/svg">
<path d="M21.9846 10.0086C22.0845 9.48453 21.6848 8.85566 21.1852 8.85566L15.4896 8.01717L12.8916 2.56698C12.7917 2.35736 12.6918 2.25255 12.4919 2.14774C11.9923 1.8333 11.3928 2.04292 11.093 2.56698L8.59491 8.01717L2.89931 8.85566C2.59954 8.85566 2.39969 8.96047 2.29977 9.17009C1.90008 9.58934 1.90008 10.2182 2.29977 10.6375L6.39661 14.8299L5.39738 20.8042C5.39738 21.0138 5.39738 21.2234 5.4973 21.433C5.79707 21.9571 6.39661 22.1667 6.89622 21.8523L11.9923 19.0224L17.0884 21.8523C17.1883 21.9571 17.3881 21.9571 17.588 21.9571C17.6879 21.9571 17.6879 21.9571 17.7878 21.9571C18.2874 21.8523 18.6871 21.3282 18.5872 20.6993L17.588 14.7251L21.6848 10.5326C21.8847 10.4278 21.9846 10.2182 21.9846 10.0086Z" fill="#FFBC57"/>
</svg>
